<svg width="1080" height="1080" xmlns="http://www.w3.org/2000/svg" xml:space="preserve" version="1.1">
 <desc>Created with Fabric.js 5.2.4</desc>

 <g>
  <title>Layer 1</title>
  <g id="5dae5391-b020-4095-bd70-5b8599aeb637" transform="matrix(0.659953 0 0 0.61264 540 542.346)">
   <rect id="svg_1" fill-rule=" nonzero" fill=" rgb(255,255,255)" stroke-miterlimit="4" stroke-linejoin=" miter" stroke-dashoffset="0" stroke-linecap=" butt" stroke-dasharray=" none" stroke=" none" height="1080" width="1080" y="-540" x="-542.33118" vector-effect="non-scaling-stroke"/>
  </g>
  <g id="bfd417c7-23c7-430d-adc2-5c7f63ef2f4b" transform="matrix(1 0 0 1 540 540)"/>
  <circle transform="matrix(14.6897 0 0 14.6897 718.348 388.725)" id="svg_2" fill-rule=" nonzero" fill=" rgb(26,86,219)" stroke-miterlimit="4" stroke-linejoin=" miter" stroke-dashoffset="0" stroke-linecap=" butt" stroke-dasharray=" none" stroke-width="0" stroke=" rgb(0,0,0)" r="35" cy="10.41087" cx="-12.11158" vector-effect="non-scaling-stroke"/>
  <g id="6fb41e03-7a19-4455-9b8d-3fcbcbaae5fb" transform="matrix(1.19067 0 0 1.19067 574.58 493.686)">
   <path id="svg_3" fill-rule=" nonzero" fill=" rgb(255,255,255)" stroke-miterlimit="4" stroke-linejoin=" miter" stroke-dashoffset="0" stroke-dasharray=" none" stroke-width="0" stroke=" rgb(0,0,0)" stroke-linecap=" butt" d="m10.71074,-205.6886c0,-17.7 -14.3,-32 -32,-32c-17.7,0 -32,14.3 -32,32l0,112l-112,0c-17.7,0 -32,14.3 -32,32c0,17.7 14.3,32 32,32l112,0l0,112c0,17.7 14.3,32 32,32c17.7,0 32,-14.3 32,-32l0,-112l112,0c17.7,0 32,-14.3 32,-32c0,-17.7 -14.3,-32 -32,-32l-112,0l0,-112zm-224,448c0,17.7 14.3,32 32,32l320,0c17.7,0 32,-14.3 32,-32c0,-17.7 -14.3,-32 -32,-32l-320,0c-17.7,0 -32,14.3 -32,32z" vector-effect="non-scaling-stroke"/>
  </g>
  <g id="svg_4">
   <g id="svg_5"/>
  </g>
 </g>
</svg>